# xmcd CD database file
#
# Track frame offsets:
#	150
#	27457
#	42757
#	57012
#	79512
#	94960
#	123832
#	144532
#	166657
#	200187
#	233632
#	249612
#	276685
#	291910
#	308637
#
# Disc length: 4463 seconds
#
# Revision: 1
# Processed by: cddbd v1.4PL0 Copyright (c) Steve Scherf et al.
# Submitted via: CDex 1.50
#
DISCID=d4116d0f
DTITLE=Mix - Paris Washboard
DYEAR=1900
DGENRE=Jazz
TTITLE0=Lulu's Back In Town
TTITLE1=Save It Pretty Mama
TTITLE2=Who?
TTITLE3=How Can You Face Me
TTITLE4=Stridin' With Bob
TTITLE5=Linger Awhile
TTITLE6=The World Is Waiting For The Sunrise
TTITLE7=Wabash Blues
TTITLE8=Dinah
TTITLE9=I Never Knew
TTITLE10=Sweet Substitute
TTITLE11=Lounging At The Waldorf
TTITLE12=Harlem Hotcha
TTITLE13=You Can't Lose A Broken Heart
TTITLE14=Bye Bye Blues
EXTD=
EXTT0=
EXTT1=
EXTT2=
EXTT3=
EXTT4=
EXTT5=
EXTT6=
EXTT7=
EXTT8=
EXTT9=
EXTT10=
EXTT11=
EXTT12=
EXTT13=
EXTT14=
PLAYORDER=
